<svg width="161" height="48" viewBox="0 0 161 48" fill="none" xmlns="http://www.w3.org/2000/svg">
<rect x="0.330078" width="160.148" height="48" rx="5" fill="black"/>
<path d="M34.0749 25.0173C34.0907 23.7908 34.4165 22.5882 35.022 21.5214C35.6274 20.4546 36.4929 19.5583 37.5379 18.9158C36.874 17.9678 35.9983 17.1875 34.9802 16.6371C33.9621 16.0867 32.8296 15.7813 31.6728 15.7451C29.2052 15.4861 26.8129 17.2217 25.5554 17.2217C24.2736 17.2217 22.3375 15.7708 20.2527 15.8137C18.9041 15.8573 17.5899 16.2494 16.438 16.9519C15.2861 17.6545 14.3358 18.6434 13.6797 19.8223C10.8376 24.7429 12.9575 31.9744 15.68 35.9518C17.0421 37.8994 18.6339 40.075 20.7169 39.9978C22.7552 39.9133 23.5165 38.6981 25.9769 38.6981C28.4144 38.6981 29.1287 39.9978 31.2539 39.9488C33.4411 39.9133 34.8191 37.9925 36.1334 36.0264C37.1121 34.6387 37.8651 33.1049 38.3647 31.482C37.094 30.9445 36.0097 30.0449 35.2468 28.8953C34.4839 27.7457 34.0764 26.397 34.0749 25.0173Z" fill="white"/>
<path d="M30.0609 13.1295C31.2534 11.6979 31.841 9.8578 31.6987 8C29.8767 8.19136 28.1938 9.06213 26.9851 10.4388C26.3942 11.1114 25.9416 11.8938 25.6532 12.7413C25.3648 13.5889 25.2463 14.485 25.3044 15.3784C26.2157 15.3878 27.1173 15.1903 27.9412 14.8007C28.7651 14.4112 29.4898 13.8398 30.0609 13.1295Z" fill="white"/>
<path d="M60.6578 31.8872H54.4707L52.9849 36.1741H50.3643L56.2246 20.3135H58.9473L64.8077 36.1741H62.1424L60.6578 31.8872ZM55.1115 29.909H60.0158L57.5982 22.9515H57.5305L55.1115 29.909Z" fill="white"/>
<path d="M77.464 30.3929C77.464 33.9864 75.4957 36.2951 72.5253 36.2951C71.7728 36.3336 71.0245 36.1642 70.366 35.8064C69.7075 35.4486 69.1654 34.9168 68.8018 34.272H68.7456V39.9996H66.3164V24.6104H68.6677V26.5338H68.7124C69.0927 25.892 69.644 25.363 70.3075 25.003C70.971 24.643 71.722 24.4655 72.4806 24.4894C75.4841 24.4894 77.464 26.8094 77.464 30.3929ZM74.9672 30.3929C74.9672 28.0517 73.729 26.5126 71.8398 26.5126C69.9838 26.5126 68.7354 28.0842 68.7354 30.3929C68.7354 32.7228 69.9838 34.2832 71.8398 34.2832C73.729 34.2832 74.9672 32.7553 74.9672 30.3929Z" fill="white"/>
<path d="M90.4894 30.3929C90.4894 33.9864 88.521 36.2951 85.5507 36.2951C84.7982 36.3335 84.0499 36.1642 83.3914 35.8064C82.7328 35.4486 82.1908 34.9168 81.8272 34.272H81.7709V39.9995H79.3418V24.6104H81.6931V26.5337H81.7378C82.1181 25.892 82.6693 25.363 83.3329 25.003C83.9964 24.643 84.7474 24.4655 85.5059 24.4894C88.5096 24.4894 90.4894 26.8094 90.4894 30.3929ZM87.9926 30.3929C87.9926 28.0517 86.7544 26.5125 84.8652 26.5125C83.0092 26.5125 81.7608 28.0841 81.7608 30.3929C81.7608 32.7228 83.0092 34.2832 84.8652 34.2832C86.7544 34.2832 87.9926 32.7553 87.9926 30.3929H87.9926Z" fill="white"/>
<path d="M99.098 31.7548C99.278 33.3276 100.842 34.3603 102.978 34.3603C105.026 34.3603 106.499 33.3276 106.499 31.9094C106.499 30.6783 105.611 29.9412 103.507 29.436L101.403 28.9408C98.4227 28.2373 97.039 26.8753 97.039 24.6651C97.039 21.9285 99.4796 20.0488 102.945 20.0488C106.375 20.0488 108.726 21.9285 108.806 24.6651H106.353C106.207 23.0823 104.868 22.1268 102.911 22.1268C100.954 22.1268 99.6149 23.0935 99.6149 24.5004C99.6149 25.6218 100.47 26.2816 102.562 26.7867L104.351 27.2158C107.681 27.9853 109.065 29.2925 109.065 31.6125C109.065 34.5798 106.646 36.4383 102.798 36.4383C99.1988 36.4383 96.7683 34.6234 96.6113 31.7546L99.098 31.7548Z" fill="white"/>
<path d="M114.308 21.874V24.6106H116.558V26.4903H114.308V32.8652C114.308 33.8555 114.758 34.3171 115.748 34.3171C116.015 34.3125 116.282 34.2942 116.547 34.2621V36.1306C116.102 36.2118 115.65 36.2486 115.198 36.2403C112.802 36.2403 111.867 35.361 111.867 33.1184V26.4903H110.146V24.6106H111.867V21.874H114.308Z" fill="white"/>
<path d="M117.861 30.3934C117.861 26.755 120.054 24.4688 123.474 24.4688C126.905 24.4688 129.088 26.755 129.088 30.3934C129.088 34.0417 126.917 36.3181 123.474 36.3181C120.033 36.3181 117.861 34.0417 117.861 30.3934ZM126.613 30.3934C126.613 27.8976 125.442 26.4245 123.474 26.4245C121.506 26.4245 120.336 27.9088 120.336 30.3934C120.336 32.8992 121.506 34.3611 123.474 34.3611C125.442 34.3611 126.613 32.8992 126.613 30.3934H126.613Z" fill="white"/>
<path d="M131.091 24.6103H133.408V26.5785H133.464C133.621 25.9638 133.989 25.4206 134.508 25.0401C135.026 24.6596 135.663 24.4651 136.31 24.4893C136.59 24.4884 136.87 24.5181 137.143 24.5779V26.7981C136.789 26.6925 136.421 26.6441 136.051 26.6546C135.698 26.6406 135.347 26.7014 135.02 26.8328C134.693 26.9643 134.4 27.1632 134.159 27.4159C133.919 27.6687 133.737 27.9693 133.627 28.2971C133.516 28.6249 133.48 28.9722 133.52 29.3151V36.174H131.091L131.091 24.6103Z" fill="white"/>
<path d="M148.342 32.7782C148.015 34.8774 145.923 36.3181 143.247 36.3181C139.804 36.3181 137.667 34.0642 137.667 30.4483C137.667 26.8212 139.815 24.4688 143.144 24.4688C146.419 24.4688 148.478 26.6665 148.478 30.1726V30.9859H140.119V31.1293C140.081 31.5549 140.135 31.9836 140.279 32.387C140.423 32.7904 140.653 33.1592 140.954 33.469C141.256 33.7788 141.621 34.0225 142.026 34.1838C142.43 34.3451 142.866 34.4204 143.303 34.4047C143.877 34.4573 144.453 34.3273 144.945 34.0343C145.438 33.7413 145.82 33.3007 146.036 32.7782L148.342 32.7782ZM140.131 29.327H146.047C146.069 28.9443 146.01 28.5614 145.873 28.2022C145.736 27.843 145.525 27.5154 145.252 27.2398C144.979 26.9642 144.652 26.7467 144.289 26.6008C143.926 26.4549 143.537 26.3838 143.144 26.3921C142.749 26.3898 142.357 26.464 141.991 26.6106C141.625 26.7571 141.292 26.9731 141.012 27.2459C140.731 27.5188 140.509 27.8432 140.358 28.2004C140.207 28.5575 140.13 28.9404 140.131 29.327V29.327Z" fill="white"/>
<path d="M54.8074 8.37584C55.3167 8.34013 55.8277 8.4153 56.3037 8.59595C56.7796 8.77659 57.2086 9.05819 57.5597 9.42045C57.9107 9.7827 58.1752 10.2166 58.3338 10.6908C58.4925 11.165 58.5415 11.6677 58.4773 12.1626C58.4773 14.5973 57.1306 15.9969 54.8074 15.9969H51.9902V8.37584H54.8074ZM53.2016 14.9191H54.6721C55.036 14.9403 55.4002 14.882 55.7382 14.7484C56.0761 14.6148 56.3793 14.4092 56.6257 14.1467C56.8721 13.8841 57.0554 13.5712 57.1624 13.2307C57.2694 12.8901 57.2974 12.5306 57.2442 12.1782C57.2935 11.8271 57.2627 11.4698 57.1541 11.1318C57.0455 10.7937 56.8616 10.4833 56.6158 10.2229C56.37 9.96242 56.0682 9.7583 55.7322 9.62517C55.3962 9.49204 55.0342 9.43318 54.6721 9.45281H53.2016V14.9191Z" fill="white"/>
<path d="M59.8461 13.1189C59.8091 12.7409 59.8534 12.3596 59.976 11.9993C60.0987 11.639 60.2971 11.3078 60.5584 11.0268C60.8198 10.7459 61.1383 10.5214 61.4937 10.3677C61.849 10.2141 62.2333 10.1348 62.6219 10.1348C63.0104 10.1348 63.3947 10.2141 63.75 10.3677C64.1054 10.5214 64.4239 10.7459 64.6853 11.0268C64.9466 11.3078 65.145 11.639 65.2677 11.9993C65.3903 12.3596 65.4346 12.7409 65.3976 13.1189C65.4353 13.4972 65.3916 13.8791 65.2692 14.2399C65.1469 14.6008 64.9486 14.9326 64.6872 15.2141C64.4258 15.4957 64.107 15.7206 63.7513 15.8746C63.3956 16.0285 63.0109 16.1081 62.6219 16.1081C62.2328 16.1081 61.8481 16.0285 61.4924 15.8746C61.1367 15.7206 60.8179 15.4957 60.5565 15.2141C60.2951 14.9326 60.0968 14.6008 59.9745 14.2399C59.8522 13.8791 59.8084 13.4972 59.8461 13.1189ZM64.2028 13.1189C64.2028 11.8722 63.6296 11.1432 62.6238 11.1432C61.6141 11.1432 61.0461 11.8722 61.0461 13.1189C61.0461 14.3755 61.6141 15.099 62.6238 15.099C63.6297 15.0989 64.2028 14.3705 64.2028 13.1189H64.2028Z" fill="white"/>
<path d="M72.777 15.9964H71.572L70.3556 11.7606H70.2637L69.0523 15.9964H67.8587L66.2363 10.2451H67.4145L68.4689 14.6337H68.5557L69.7658 10.2451H70.8802L72.0903 14.6337H72.1822L73.2315 10.2451H74.3931L72.777 15.9964Z" fill="white"/>
<path d="M75.7578 10.2456H76.876V11.1592H76.9628C77.1101 10.8311 77.3584 10.556 77.6733 10.3723C77.9881 10.1887 78.3538 10.1055 78.7193 10.1346C79.0057 10.1135 79.2932 10.1557 79.5607 10.258C79.8281 10.3603 80.0685 10.5201 80.2642 10.7255C80.4598 10.931 80.6057 11.1768 80.6909 11.4448C80.7761 11.7128 80.7986 11.9961 80.7565 12.2737V15.9968H79.5949V12.5587C79.5949 11.6345 79.1839 11.1748 78.3248 11.1748C78.1304 11.166 77.9363 11.1983 77.7558 11.2696C77.5754 11.3409 77.4128 11.4495 77.2793 11.588C77.1458 11.7264 77.0446 11.8914 76.9824 12.0716C76.9203 12.2519 76.8988 12.4431 76.9194 12.6323V15.9969H75.7578L75.7578 10.2456Z" fill="white"/>
<path d="M82.6074 8H83.769V15.9964H82.6074V8Z" fill="white"/>
<path d="M85.3832 13.119C85.3462 12.741 85.3905 12.3596 85.5132 11.9993C85.6359 11.6391 85.8343 11.3078 86.0957 11.0268C86.357 10.7459 86.6756 10.5214 87.031 10.3677C87.3864 10.2141 87.7707 10.1348 88.1593 10.1348C88.5478 10.1348 88.9321 10.2141 89.2875 10.3677C89.6429 10.5214 89.9615 10.7459 90.2228 11.0268C90.4842 11.3078 90.6826 11.6391 90.8053 11.9993C90.928 12.3596 90.9723 12.741 90.9353 13.119C90.9729 13.4973 90.9292 13.8792 90.8068 14.24C90.6844 14.6009 90.4862 14.9327 90.2247 15.2142C89.9633 15.4958 89.6445 15.7207 89.2887 15.8747C88.933 16.0286 88.5483 16.1081 88.1593 16.1081C87.7702 16.1081 87.3855 16.0286 87.0298 15.8747C86.674 15.7207 86.3552 15.4958 86.0938 15.2142C85.8323 14.9327 85.6341 14.6009 85.5117 14.24C85.3893 13.8792 85.3456 13.4973 85.3832 13.119ZM89.7399 13.119C89.7399 11.8723 89.1667 11.1433 88.1608 11.1433C87.1511 11.1433 86.5832 11.8723 86.5832 13.119C86.5832 14.3756 87.1512 15.0991 88.1608 15.0991C89.1667 15.099 89.7399 14.3706 89.7399 13.119H89.7399Z" fill="white"/>
<path d="M92.1582 14.3706C92.1582 13.3353 92.9471 12.7385 94.3474 12.6537L95.9417 12.5639V12.0674C95.9417 11.46 95.5307 11.117 94.7367 11.117C94.0883 11.117 93.6389 11.3496 93.51 11.7562H92.3854C92.5041 10.7684 93.4551 10.1348 94.7903 10.1348C96.2659 10.1348 97.0982 10.8526 97.0982 12.0674V15.9971H95.98V15.1888H95.8881C95.7015 15.4787 95.4396 15.7151 95.129 15.8737C94.8184 16.0324 94.4703 16.1076 94.1202 16.0918C93.8731 16.1169 93.6233 16.0912 93.3871 16.0162C93.1508 15.9412 92.9332 15.8187 92.7484 15.6565C92.5635 15.4944 92.4155 15.2961 92.3138 15.0747C92.2122 14.8532 92.1592 14.6133 92.1582 14.3706ZM95.9417 13.8791V13.3983L94.5044 13.4881C93.6938 13.5411 93.3262 13.8105 93.3262 14.3176C93.3262 14.8352 93.7857 15.1364 94.4176 15.1364C94.6028 15.1547 94.7898 15.1364 94.9676 15.0827C95.1453 15.0289 95.3102 14.9408 95.4524 14.8235C95.5946 14.7062 95.7112 14.5621 95.7953 14.3999C95.8793 14.2377 95.9291 14.0606 95.9417 13.8791Z" fill="white"/>
<path d="M98.625 13.1183C98.625 11.301 99.5811 10.1497 101.068 10.1497C101.436 10.1332 101.801 10.2193 102.121 10.3979C102.44 10.5766 102.701 10.8405 102.873 11.1587H102.96V8H104.122V15.9964H103.008V15.0877H102.917C102.731 15.4039 102.461 15.6645 102.136 15.8413C101.81 16.0182 101.441 16.1046 101.068 16.0912C99.5709 16.0913 98.625 14.94 98.625 13.1183ZM99.8249 13.1183C99.8249 14.3382 100.413 15.0722 101.398 15.0722C102.377 15.0722 102.982 14.3276 102.982 13.1233C102.982 11.9246 102.37 11.1694 101.398 11.1694C100.42 11.1694 99.8249 11.9084 99.8249 13.1183H99.8249Z" fill="white"/>
<path d="M108.927 13.1189C108.89 12.7409 108.934 12.3596 109.057 11.9993C109.18 11.639 109.378 11.3078 109.639 11.0268C109.901 10.7459 110.219 10.5214 110.575 10.3677C110.93 10.2141 111.314 10.1348 111.703 10.1348C112.091 10.1348 112.476 10.2141 112.831 10.3677C113.186 10.5214 113.505 10.7459 113.766 11.0268C114.028 11.3078 114.226 11.639 114.349 11.9993C114.471 12.3596 114.516 12.7409 114.479 13.1189C114.516 13.4972 114.473 13.8791 114.35 14.2399C114.228 14.6008 114.03 14.9326 113.768 15.2141C113.507 15.4957 113.188 15.7206 112.832 15.8746C112.477 16.0285 112.092 16.1081 111.703 16.1081C111.314 16.1081 110.929 16.0285 110.573 15.8746C110.218 15.7206 109.899 15.4957 109.638 15.2141C109.376 14.9326 109.178 14.6008 109.056 14.2399C108.933 13.8791 108.889 13.4972 108.927 13.1189ZM113.284 13.1189C113.284 11.8722 112.711 11.1432 111.705 11.1432C110.695 11.1432 110.127 11.8722 110.127 13.1189C110.127 14.3755 110.695 15.099 111.705 15.099C112.711 15.0989 113.284 14.3705 113.284 13.1189Z" fill="white"/>
<path d="M116.037 10.2456H117.155V11.1592H117.242C117.389 10.8311 117.638 10.556 117.953 10.3723C118.267 10.1887 118.633 10.1055 118.999 10.1346C119.285 10.1135 119.573 10.1557 119.84 10.258C120.107 10.3603 120.348 10.5201 120.543 10.7255C120.739 10.931 120.885 11.1768 120.97 11.4448C121.055 11.7128 121.078 11.9961 121.036 12.2737V15.9968H119.874V12.5587C119.874 11.6345 119.463 11.1748 118.604 11.1748C118.41 11.166 118.216 11.1983 118.035 11.2696C117.855 11.3409 117.692 11.4495 117.559 11.588C117.425 11.7264 117.324 11.8914 117.262 12.0716C117.2 12.2519 117.178 12.4431 117.199 12.6323V15.9969H116.037V10.2456Z" fill="white"/>
<path d="M127.6 8.81348V10.2716H128.875V11.2276H127.6V14.185C127.6 14.7874 127.854 15.0512 128.432 15.0512C128.581 15.0507 128.728 15.042 128.875 15.025V15.9705C128.667 16.0069 128.455 16.0263 128.244 16.0285C126.952 16.0285 126.437 15.5844 126.437 14.4756V11.2276H125.503V10.2715H126.437V8.81348H127.6Z" fill="white"/>
<path d="M130.462 8H131.613V11.1694H131.705C131.86 10.8382 132.115 10.5615 132.436 10.3772C132.757 10.1928 133.129 10.1097 133.5 10.1391C133.785 10.124 134.07 10.1704 134.334 10.2752C134.598 10.38 134.836 10.5405 135.029 10.7453C135.223 10.9501 135.368 11.1941 135.454 11.46C135.54 11.7258 135.565 12.0069 135.527 12.2832V15.9964H134.364V12.5632C134.364 11.6446 133.926 11.1793 133.106 11.1793C132.906 11.1633 132.705 11.1902 132.517 11.2579C132.329 11.3257 132.159 11.4328 132.018 11.5716C131.876 11.7105 131.768 11.8779 131.7 12.062C131.632 12.2461 131.606 12.4425 131.624 12.6374V15.9964H130.462L130.462 8Z" fill="white"/>
<path d="M142.3 14.4443C142.142 14.9699 141.801 15.4246 141.334 15.7287C140.868 16.0329 140.307 16.1672 139.75 16.1082C139.362 16.1182 138.977 16.0456 138.621 15.8955C138.264 15.7454 137.946 15.5213 137.687 15.2389C137.428 14.9564 137.236 14.6223 137.122 14.2598C137.009 13.8973 136.978 13.5151 137.031 13.1396C136.979 12.763 137.011 12.3799 137.124 12.0163C137.237 11.6527 137.429 11.3171 137.686 11.0322C137.944 10.7472 138.261 10.5197 138.616 10.3649C138.971 10.2101 139.356 10.1316 139.745 10.1349C141.382 10.1349 142.37 11.2282 142.37 13.0342V13.4302H138.214V13.4938C138.196 13.7049 138.223 13.9173 138.294 14.1175C138.365 14.3177 138.477 14.5013 138.625 14.6564C138.773 14.8116 138.952 14.9348 139.151 15.0184C139.35 15.1019 139.565 15.1438 139.782 15.1415C140.06 15.1741 140.341 15.1252 140.59 15.001C140.84 14.8769 141.046 14.683 141.182 14.4442L142.3 14.4443ZM138.214 12.5908H141.187C141.202 12.3978 141.175 12.2039 141.108 12.0216C141.042 11.8393 140.937 11.6727 140.8 11.5323C140.664 11.392 140.499 11.2812 140.316 11.2069C140.133 11.1326 139.936 11.0965 139.738 11.1009C139.537 11.0984 139.338 11.1353 139.152 11.2093C138.966 11.2833 138.797 11.393 138.655 11.5318C138.513 11.6707 138.401 11.8359 138.325 12.0178C138.249 12.1996 138.212 12.3945 138.214 12.5908H138.214Z" fill="white"/>
</svg>
