<svg width="42" height="48" viewBox="0 0 42 48" fill="none" xmlns="http://www.w3.org/2000/svg">
<path d="M21 24C18.75 24 16.7812 23.5312 14.9062 22.4062C13.0312 21.375 11.625 19.9688 10.5938 18.0938C9.46875 16.2188 9 14.25 9 12C9 9.84375 9.46875 7.875 10.5938 6C11.625 4.125 13.0312 2.71875 14.9062 1.59375C16.7812 0.5625 18.75 0 21 0C23.1562 0 25.125 0.5625 27 1.59375C28.875 2.71875 30.2812 4.125 31.4062 6C32.4375 7.875 33 9.84375 33 12C33 14.25 32.4375 16.2188 31.4062 18.0938C30.2812 19.9688 28.875 21.375 27 22.4062C25.125 23.5312 23.1562 24 21 24ZM29.4375 27C31.6875 27 33.75 27.5625 35.7188 28.6875C37.5938 29.8125 39.1875 31.4062 40.3125 33.2812C41.4375 35.25 42 37.3125 42 39.5625V43.5C42 44.8125 41.5312 45.8438 40.6875 46.6875C39.75 47.625 38.7188 48 37.5 48H4.5C3.1875 48 2.15625 47.625 1.3125 46.6875C0.375 45.8438 0 44.8125 0 43.5V39.5625C0 37.3125 0.5625 35.25 1.6875 33.2812C2.8125 31.4062 4.3125 29.8125 6.28125 28.6875C8.15625 27.5625 10.3125 27 12.5625 27H14.1562C16.3125 28.0312 18.5625 28.5 21 28.5C23.3438 28.5 25.5938 28.0312 27.8438 27H29.4375Z" fill="#557BFF"/>
</svg>
