<svg width="56" height="58" viewBox="0 0 56 58" fill="none" xmlns="http://www.w3.org/2000/svg">
<path d="M28.0811 57C22.8516 56.9958 17.8379 54.9154 14.1416 51.2162C10.4453 47.5169 8.36914 42.5014 8.36914 37.272V20.712C8.36914 15.4841 10.4459 10.4702 14.1426 6.77349C17.8393 3.07678 22.8531 1.00001 28.0811 1.00001C30.671 0.997904 33.2361 1.50623 35.6295 2.4959C38.0229 3.48558 40.1978 4.93719 42.0299 6.76783C43.862 8.59847 45.3154 10.7722 46.307 13.1649C47.2986 15.5575 47.809 18.1221 47.809 20.712V37.272C47.809 42.5042 45.7306 47.5221 42.0309 51.2218C38.3311 54.9215 33.3132 57 28.0811 57Z" fill="#A6E9F4"/>
<path d="M8.43302 18.2178C8.33629 19.0462 8.28826 19.8797 8.28907 20.7138V37.2737C8.28906 39.8698 8.80146 42.4404 9.79689 44.8381C10.7923 47.2358 12.2512 49.4135 14.0899 51.2462C15.9286 53.079 18.111 54.5308 20.5119 55.5185C22.9128 56.5061 25.485 57.0102 28.0811 57.0018C31.2146 56.9903 34.3002 56.2325 37.0826 54.7912C39.865 53.3499 42.264 51.2666 44.0811 48.7138L8.43302 18.2178Z" fill="#84D0D8"/>
<path d="M28.0811 5.19277C27.5209 5.19277 26.9838 4.97025 26.5877 4.57417C26.1916 4.17809 25.9692 3.6409 25.9692 3.08076C25.9692 2.52062 26.1916 1.98343 26.5877 1.58735C26.9838 1.19128 27.5209 0.96875 28.0811 0.96875C22.8531 0.96875 17.8393 3.04557 14.1426 6.74229C10.4459 10.439 8.36917 15.4528 8.36917 20.6808V37.2408C8.36496 39.8328 8.87145 42.4003 9.85999 44.7965C10.8485 47.1926 12.2997 49.3705 14.1303 51.2056C15.9609 53.0407 18.1352 54.497 20.5289 55.4914C22.9227 56.4858 25.489 56.9987 28.0811 57.0008C32.8795 57.0092 37.5141 55.2555 41.1051 52.0728L17.1051 31.6728L28.0811 5.19277Z" fill="#A6E9F4"/>
<path d="M12.4961 20.714C12.4961 17.6476 13.4054 14.65 15.109 12.1004C16.8126 9.55078 19.234 7.56361 22.067 6.39015C24.9 5.21669 28.0173 4.90965 31.0248 5.50787C34.0323 6.1061 36.7948 7.58271 38.9631 9.75099C41.1314 11.9193 42.608 14.6818 43.2063 17.6893C43.8045 20.6967 43.4973 23.8141 42.3238 26.6471C41.1504 29.4801 39.1633 31.9014 36.6137 33.605C34.0641 35.3086 31.0664 36.218 28 36.218C23.8894 36.2137 19.9484 34.5789 17.0418 31.6723C14.1352 28.7656 12.5003 24.8246 12.4961 20.714Z" fill="#FFDFCF"/>
<path d="M21.5523 31.6736C19.5184 29.6436 18.0892 27.0879 17.4248 24.2921C16.7604 21.4964 16.887 18.571 17.7902 15.843C18.6935 13.1151 20.3377 10.6922 22.5393 8.84535C24.7408 6.99853 27.4128 5.80062 30.2563 5.38558C28.0576 5.06708 25.8163 5.22531 23.6842 5.8495C21.5521 6.47368 19.5793 7.54924 17.8996 9.00316C16.2199 10.4571 14.8724 12.2554 13.949 14.2759C13.0256 16.2965 12.5479 18.492 12.5479 20.7136C12.5479 22.9352 13.0256 25.1307 13.949 27.1513C14.8724 29.1719 16.2199 30.9701 17.8996 32.4241C19.5793 33.878 21.5521 34.9535 23.6842 35.5777C25.8163 36.2019 28.0576 36.3601 30.2563 36.0416C26.9593 35.5638 23.9058 34.0313 21.5523 31.6736Z" fill="#F7CCBE"/>
<path d="M22.3535 25.001C22.5164 25.69 22.4605 26.4126 22.1939 27.0684C21.9273 27.7243 21.4632 28.2808 20.8658 28.6607C20.2684 29.0406 19.5675 29.2251 18.8605 29.1884C18.1535 29.1518 17.4754 28.8959 16.9205 28.4563C16.3656 28.0166 15.9614 27.4151 15.764 26.7352C15.5667 26.0553 15.5859 25.3309 15.8191 24.6624C16.0523 23.994 16.4879 23.4147 17.0654 23.0052C17.6429 22.5956 18.3334 22.3761 19.0414 22.377C19.8259 22.2996 20.61 22.53 21.2279 23.0195C21.8458 23.5091 22.2494 24.2196 22.3535 25.001Z" fill="#F97070"/>
<path d="M33.6652 25.0009C33.5058 25.6869 33.5638 26.4054 33.8312 27.0569C34.0987 27.7084 34.5622 28.2605 35.1576 28.6366C35.753 29.0127 36.4507 29.1942 37.1539 29.1559C37.8571 29.1175 38.5309 28.8613 39.0818 28.4227C39.6328 27.984 40.0335 27.3848 40.2285 26.7081C40.4235 26.0313 40.403 25.3107 40.1699 24.6462C39.9368 23.9816 39.5027 23.4061 38.9277 22.9995C38.3527 22.5929 37.6656 22.3753 36.9613 22.3769C36.1786 22.2997 35.3964 22.5306 34.781 23.0205C34.1657 23.5104 33.7655 24.2208 33.6652 25.0009Z" fill="#F97070"/>
<path d="M20.9605 23.2883C20.7441 23.2883 20.5364 23.2023 20.3834 23.0493C20.2304 22.8963 20.1445 22.6887 20.1445 22.4723V21.1923C20.1942 21.0185 20.299 20.8655 20.4434 20.7566C20.5877 20.6478 20.7637 20.5889 20.9445 20.5889C21.1253 20.5889 21.3012 20.6478 21.4455 20.7566C21.5899 20.8655 21.6949 21.0185 21.7445 21.1923V22.5523C21.7253 22.7492 21.635 22.9323 21.4908 23.0677C21.3466 23.2031 21.1582 23.2815 20.9605 23.2883Z" fill="#474E61"/>
<path d="M35.0406 23.2893C34.8242 23.2893 34.6167 23.2033 34.4637 23.0503C34.3106 22.8973 34.2246 22.6897 34.2246 22.4733V21.1933C34.2618 21.0085 34.3618 20.8422 34.5076 20.7228C34.6535 20.6034 34.8361 20.5381 35.0246 20.5381C35.2131 20.5381 35.3958 20.6034 35.5416 20.7228C35.6874 20.8422 35.7875 21.0085 35.8246 21.1933V22.5533C35.8053 22.7502 35.7153 22.9333 35.5711 23.0687C35.4269 23.2041 35.2383 23.2825 35.0406 23.2893Z" fill="#474E61"/>
<path d="M28.0805 24.0892C27.6129 24.0939 27.1499 23.996 26.7242 23.8025C26.2985 23.609 25.9204 23.3246 25.6164 22.9692C25.546 22.8883 25.4923 22.7944 25.4582 22.6927C25.4241 22.591 25.4106 22.4836 25.418 22.3767C25.4254 22.2697 25.4538 22.1652 25.5016 22.0692C25.5494 21.9733 25.6156 21.8876 25.6965 21.8172C25.7774 21.7469 25.8714 21.6931 25.9731 21.659C26.0747 21.6249 26.1821 21.6112 26.2891 21.6186C26.3961 21.626 26.5005 21.6545 26.5965 21.7023C26.6925 21.7501 26.7781 21.8163 26.8485 21.8972C27.0004 22.0749 27.1895 22.2171 27.4024 22.3139C27.6152 22.4106 27.8467 22.4596 28.0805 22.4572C28.3143 22.4596 28.5458 22.4106 28.7586 22.3139C28.9715 22.2171 29.1606 22.0749 29.3125 21.8972C29.383 21.8139 29.4696 21.7456 29.567 21.6963C29.6644 21.647 29.7706 21.6178 29.8795 21.6103C29.9884 21.6028 30.0978 21.6173 30.201 21.6528C30.3042 21.6884 30.3993 21.7443 30.4805 21.8172C30.6291 21.9722 30.7121 22.1785 30.7121 22.3932C30.7121 22.6079 30.6291 22.8143 30.4805 22.9692C30.1803 23.3125 29.8119 23.5894 29.3987 23.7822C28.9854 23.9751 28.5364 24.0796 28.0805 24.0892Z" fill="#474E61"/>
<path d="M33.9526 12.969C33.7262 13.522 33.3929 14.025 32.9719 14.449C32.5509 14.8731 32.0503 15.21 31.4989 15.4403C30.9475 15.6707 30.3562 15.79 29.7586 15.7915C29.1611 15.793 28.569 15.6766 28.0165 15.449C27.594 15.2769 27.2097 15.0232 26.8854 14.7024C26.5611 14.3816 26.303 14 26.1262 13.5795C25.9494 13.159 25.8571 12.7078 25.8547 12.2517C25.8524 11.7955 25.9401 11.3433 26.1125 10.921C26.2424 10.6034 26.4337 10.3146 26.6754 10.071C26.9171 9.8275 27.2044 9.63404 27.5209 9.50176C27.8375 9.36947 28.1772 9.30096 28.5204 9.30015C28.8635 9.29933 29.2033 9.36624 29.5206 9.49702C29.7554 9.59188 29.9691 9.73227 30.1495 9.91011C30.3298 10.0879 30.4732 10.2997 30.5713 10.5332C30.6695 10.7667 30.7205 11.0173 30.7213 11.2706C30.7222 11.5239 30.6731 11.7749 30.5766 12.009C30.51 12.177 30.4106 12.33 30.2842 12.4591C30.1579 12.5882 30.007 12.6909 29.8405 12.761C29.7417 12.8031 29.6522 12.8641 29.577 12.9407C29.5018 13.0173 29.4427 13.108 29.4026 13.2076C29.3625 13.3071 29.3422 13.4136 29.3432 13.5209C29.3442 13.6282 29.3664 13.7343 29.4084 13.833C29.4505 13.9318 29.5115 14.0213 29.5881 14.0964C29.6648 14.1716 29.7556 14.2309 29.8551 14.271C29.9547 14.3112 30.0611 14.3313 30.1684 14.3302C30.2757 14.3292 30.3818 14.3071 30.4805 14.265C31.2037 13.9632 31.7787 13.3882 32.0805 12.665C32.258 12.2323 32.3484 11.7688 32.3463 11.3011C32.3443 10.8334 32.2498 10.3707 32.0684 9.93955C31.887 9.50843 31.6222 9.11736 31.2893 8.78882C30.9564 8.46027 30.562 8.20069 30.1286 8.025C29.0846 7.59673 27.9134 7.60055 26.8723 8.0356C25.8312 8.47064 25.0055 9.30133 24.5766 10.345C24.0641 11.6012 24.0712 13.0094 24.5961 14.2604C25.1211 15.5113 26.1212 16.5028 27.3766 17.017C28.1166 17.3258 28.9107 17.4836 29.7125 17.481C30.9445 17.4808 32.1487 17.114 33.1715 16.4273C34.1944 15.7406 34.9897 14.7651 35.4565 13.625C35.8367 12.7124 36.0325 11.7336 36.0325 10.745C36.0325 9.75641 35.8367 8.7776 35.4565 7.86504C35.3159 7.53572 35.1557 7.21513 34.9766 6.90503C33.8237 6.32939 32.6036 5.89939 31.3446 5.625C32.6112 6.32213 33.5779 7.45979 34.0616 8.82227C34.5452 10.1847 34.5122 11.6773 33.9686 13.017" fill="#5F5346"/>
</svg>
