<svg width="165" height="48" viewBox="0 0 165 48" fill="none" xmlns="http://www.w3.org/2000/svg">
<rect width="164.33" height="48" rx="5" fill="black"/>
<path d="M25.3686 23.2822L12.1221 37.3412C12.1233 37.3437 12.1233 37.3475 12.1246 37.3499C12.5314 38.8765 13.9249 40 15.5796 40C16.2415 40 16.8623 39.8208 17.3948 39.5073L17.4371 39.4824L32.3471 30.8791L25.3686 23.2822Z" fill="#EA4335"/>
<path d="M38.7693 20.8886L38.7569 20.8799L32.3196 17.1486L25.0674 23.6021L32.3457 30.8779L38.7482 27.184C39.8704 26.5769 40.6331 25.3937 40.6331 24.0301C40.6331 22.6739 39.8816 21.497 38.7693 20.8886Z" fill="#FBBC04"/>
<path d="M12.1219 10.6583C12.0423 10.9519 12 11.2605 12 11.579V36.4224C12 36.7409 12.0423 37.0494 12.1232 37.3418L25.8239 23.6424L12.1219 10.6583Z" fill="#4285F4"/>
<path d="M25.4669 24L32.3222 17.1459L17.4297 8.51146C16.8884 8.18673 16.2564 8.00011 15.5808 8.00011C13.9261 8.00011 12.5302 9.12607 12.1233 10.6539C12.1233 10.6551 12.1221 10.6564 12.1221 10.6576L25.4669 24Z" fill="#34A853"/>
<path d="M60.1317 11.9722C60.1317 12.9577 59.84 13.7421 59.2556 14.3278C58.5911 15.024 57.7268 15.3721 56.6636 15.3721C55.6441 15.3721 54.7785 15.0193 54.067 14.3125C53.3532 13.6069 52.998 12.7308 52.998 11.6865C52.998 10.641 53.3532 9.76606 54.067 9.05929C54.7785 8.35368 55.6441 7.99971 56.6636 7.99971C57.1682 7.99971 57.6527 8.09849 58.1113 8.29606C58.5711 8.49363 58.9392 8.75588 59.2156 9.08398L58.5946 9.70491C58.1278 9.14748 57.4845 8.8676 56.6636 8.8676C55.9204 8.8676 55.2783 9.12867 54.7362 9.65082C54.194 10.1741 53.9236 10.8515 53.9236 11.6865C53.9236 12.5203 54.194 13.1988 54.7362 13.721C55.2783 14.2443 55.9204 14.5042 56.6636 14.5042C57.4516 14.5042 58.1078 14.2419 58.6346 13.7163C58.9757 13.374 59.1721 12.8989 59.225 12.2874H56.6636V11.4395H60.0823C60.1152 11.6241 60.1317 11.8017 60.1317 11.9722Z" fill="white"/>
<path d="M60.1317 11.9722C60.1317 12.9577 59.84 13.7421 59.2556 14.3278C58.5911 15.024 57.7268 15.3721 56.6636 15.3721C55.6441 15.3721 54.7785 15.0193 54.067 14.3125C53.3532 13.6069 52.998 12.7308 52.998 11.6865C52.998 10.641 53.3532 9.76606 54.067 9.05929C54.7785 8.35368 55.6441 7.99971 56.6636 7.99971C57.1682 7.99971 57.6527 8.09849 58.1113 8.29606C58.5711 8.49363 58.9392 8.75588 59.2156 9.08398L58.5946 9.70491C58.1278 9.14748 57.4845 8.8676 56.6636 8.8676C55.9204 8.8676 55.2783 9.12867 54.7362 9.65082C54.194 10.1741 53.9236 10.8515 53.9236 11.6865C53.9236 12.5203 54.194 13.1988 54.7362 13.721C55.2783 14.2443 55.9204 14.5042 56.6636 14.5042C57.4516 14.5042 58.1078 14.2419 58.6346 13.7163C58.9757 13.374 59.1721 12.8989 59.225 12.2874H56.6636V11.4395H60.0823C60.1152 11.6241 60.1317 11.8017 60.1317 11.9722Z" fill="white"/>
<path d="M65.5522 9.02554H62.3393V11.2623H65.237V12.1102H62.3393V14.347H65.5522V15.2148H61.4326V8.15882H65.5522V9.02554Z" fill="white"/>
<path d="M65.5522 9.02554H62.3393V11.2623H65.237V12.1102H62.3393V14.347H65.5522V15.2148H61.4326V8.15882H65.5522V9.02554Z" fill="white"/>
<path d="M69.3757 15.2139H68.469V9.02456H66.498V8.15785H71.3467V9.02456H69.3757V15.2139Z" fill="white"/>
<path d="M69.3757 15.2139H68.469V9.02456H66.498V8.15785H71.3467V9.02456H69.3757V15.2139Z" fill="white"/>
<path d="M74.8545 8.15785H75.7612V15.2139H74.8545V8.15785Z" fill="white"/>
<path d="M79.783 15.2139H78.8763V9.02456H76.9053V8.15785H81.7539V9.02456H79.783V15.2139Z" fill="white"/>
<path d="M79.783 15.2139H78.8763V9.02456H76.9053V8.15785H81.7539V9.02456H79.783V15.2139Z" fill="white"/>
<path d="M86.4285 13.7116C86.9506 14.2408 87.5892 14.5042 88.3453 14.5042C89.1015 14.5042 89.7401 14.2408 90.2622 13.7116C90.7844 13.1824 91.0466 12.5073 91.0466 11.6865C91.0466 10.8656 90.7844 10.1894 90.2622 9.6614C89.7401 9.1322 89.1015 8.8676 88.3453 8.8676C87.5892 8.8676 86.9506 9.1322 86.4285 9.6614C85.9075 10.1894 85.6452 10.8656 85.6452 11.6865C85.6452 12.5073 85.9075 13.1824 86.4285 13.7116ZM90.9326 14.3019C90.2387 15.0157 89.3767 15.3721 88.3453 15.3721C87.314 15.3721 86.452 15.0157 85.7593 14.3019C85.0655 13.5892 84.7197 12.7178 84.7197 11.6865C84.7197 10.6551 85.0655 9.78253 85.7593 9.06987C86.452 8.35721 87.314 7.99971 88.3453 7.99971C89.3708 7.99971 90.2305 8.35839 90.9278 9.07457C91.624 9.79076 91.9721 10.661 91.9721 11.6865C91.9721 12.7178 91.6252 13.5892 90.9326 14.3019Z" fill="white"/>
<path d="M86.4285 13.7116C86.9506 14.2408 87.5892 14.5042 88.3453 14.5042C89.1015 14.5042 89.7401 14.2408 90.2622 13.7116C90.7844 13.1824 91.0466 12.5073 91.0466 11.6865C91.0466 10.8656 90.7844 10.1894 90.2622 9.6614C89.7401 9.1322 89.1015 8.8676 88.3453 8.8676C87.5892 8.8676 86.9506 9.1322 86.4285 9.6614C85.9075 10.1894 85.6452 10.8656 85.6452 11.6865C85.6452 12.5073 85.9075 13.1824 86.4285 13.7116ZM90.9326 14.3019C90.2387 15.0157 89.3767 15.3721 88.3453 15.3721C87.314 15.3721 86.452 15.0157 85.7593 14.3019C85.0655 13.5892 84.7197 12.7178 84.7197 11.6865C84.7197 10.6551 85.0655 9.78253 85.7593 9.06987C86.452 8.35721 87.314 7.99971 88.3453 7.99971C89.3708 7.99971 90.2305 8.35839 90.9278 9.07457C91.624 9.79076 91.9721 10.661 91.9721 11.6865C91.9721 12.7178 91.6252 13.5892 90.9326 14.3019Z" fill="white"/>
<path d="M93.2441 15.2139V8.15785H94.3472L97.7765 13.6463H97.8164L97.7765 12.2868V8.15785H98.6843V15.2139H97.7376L94.1497 9.45851H94.1109L94.1497 10.8191V15.2139H93.2441Z" fill="white"/>
<path d="M93.2441 15.2139V8.15785H94.3472L97.7765 13.6463H97.8164L97.7765 12.2868V8.15785H98.6843V15.2139H97.7376L94.1497 9.45851H94.1109L94.1497 10.8191V15.2139H93.2441Z" fill="white"/>
<path d="M130.124 35.2066H132.319V20.5054H130.124V35.2066ZM149.889 25.8009L147.374 32.1749H147.299L144.688 25.8009H142.324L146.239 34.7092L144.008 39.6648H146.296L152.33 25.8009H149.889ZM137.445 33.5367C136.725 33.5367 135.723 33.178 135.723 32.2878C135.723 31.1541 136.971 30.719 138.049 30.719C139.014 30.719 139.469 30.9271 140.055 31.2106C139.884 32.5724 138.712 33.5367 137.445 33.5367ZM137.71 25.4799C136.121 25.4799 134.474 26.1796 133.795 27.7308L135.742 28.5434C136.158 27.7308 136.933 27.465 137.747 27.465C138.882 27.465 140.036 28.1459 140.055 29.3572V29.5077C139.657 29.2807 138.807 28.9409 137.766 28.9409C135.667 28.9409 133.529 30.0945 133.529 32.2501C133.529 34.2176 135.251 35.4853 137.179 35.4853C138.655 35.4853 139.469 34.8232 139.979 34.0471H140.055V35.1819H142.173V29.5453C142.173 26.9358 140.225 25.4799 137.71 25.4799ZM124.148 27.5908H121.027V22.5516H124.148C125.788 22.5516 126.72 23.9099 126.72 25.0706C126.72 26.2102 125.788 27.5908 124.148 27.5908ZM124.091 20.5054H118.834V35.2066H121.027V29.6371H124.091C126.523 29.6371 128.914 27.8754 128.914 25.0706C128.914 22.2659 126.523 20.5054 124.091 20.5054ZM95.4193 33.539C93.9035 33.539 92.6346 32.2701 92.6346 30.5273C92.6346 28.7656 93.9035 27.4767 95.4193 27.4767C96.9164 27.4767 98.09 28.7656 98.09 30.5273C98.09 32.2701 96.9164 33.539 95.4193 33.539ZM97.9395 26.6241H97.8631C97.3703 26.0373 96.4236 25.5069 95.23 25.5069C92.7286 25.5069 90.4366 27.7037 90.4366 30.5273C90.4366 33.3309 92.7286 35.51 95.23 35.51C96.4236 35.51 97.3703 34.9796 97.8631 34.3728H97.9395V35.0937C97.9395 37.0071 96.9164 38.0302 95.2676 38.0302C93.9223 38.0302 93.0885 37.0635 92.7475 36.2485L90.8341 37.0447C91.3833 38.3712 92.8427 40 95.2676 40C97.8442 40 100.023 38.4841 100.023 34.7903V25.8092H97.9395V26.6241ZM101.539 35.2066H103.737V20.5042H101.539V35.2066ZM106.976 30.3568C106.919 28.4246 108.473 27.4391 109.59 27.4391C110.463 27.4391 111.201 27.8742 111.447 28.4999L106.976 30.3568ZM113.797 28.6892C113.38 27.572 112.11 25.5069 109.515 25.5069C106.938 25.5069 104.798 27.5332 104.798 30.5085C104.798 33.3121 106.919 35.51 109.761 35.51C112.054 35.51 113.38 34.1082 113.93 33.2933L112.224 32.1561C111.656 32.9898 110.879 33.539 109.761 33.539C108.643 33.539 107.847 33.0275 107.336 32.0243L114.024 29.2572L113.797 28.6892ZM60.5144 27.0416V29.1631H65.5912C65.4395 30.3568 65.042 31.2282 64.4364 31.8338C63.6966 32.5735 62.5406 33.3885 60.5144 33.3885C57.3874 33.3885 54.9437 30.8683 54.9437 27.7425C54.9437 24.6155 57.3874 22.0965 60.5144 22.0965C62.2008 22.0965 63.4321 22.7598 64.3411 23.6124L65.8382 22.1153C64.5681 20.9029 62.8829 19.9738 60.5144 19.9738C56.2326 19.9738 52.6328 23.4607 52.6328 27.7425C52.6328 32.0243 56.2326 35.51 60.5144 35.51C62.8252 35.51 64.5681 34.7515 65.9322 33.3309C67.3352 31.9291 67.7703 29.9593 67.7703 28.367C67.7703 27.8742 67.7327 27.4203 67.6563 27.0416H60.5144ZM73.5433 33.539C72.0275 33.539 70.7197 32.2889 70.7197 30.5085C70.7197 28.708 72.0275 27.4767 73.5433 27.4767C75.058 27.4767 76.3657 28.708 76.3657 30.5085C76.3657 32.2889 75.058 33.539 73.5433 33.539ZM73.5433 25.5069C70.7762 25.5069 68.5218 27.6096 68.5218 30.5085C68.5218 33.3885 70.7762 35.51 73.5433 35.51C76.3093 35.51 78.5637 33.3885 78.5637 30.5085C78.5637 27.6096 76.3093 25.5069 73.5433 25.5069ZM84.4954 33.539C82.9796 33.539 81.6719 32.2889 81.6719 30.5085C81.6719 28.708 82.9796 27.4767 84.4954 27.4767C86.0113 27.4767 87.3179 28.708 87.3179 30.5085C87.3179 32.2889 86.0113 33.539 84.4954 33.539ZM84.4954 25.5069C81.7295 25.5069 79.4751 27.6096 79.4751 30.5085C79.4751 33.3885 81.7295 35.51 84.4954 35.51C87.2614 35.51 89.5158 33.3885 89.5158 30.5085C89.5158 27.6096 87.2614 25.5069 84.4954 25.5069Z" fill="white"/>
</svg>
