<svg width="80" height="80" viewBox="0 0 80 80" fill="none" xmlns="http://www.w3.org/2000/svg">
<g clip-path="url(#clip0_120_7535)">
<path d="M61.1875 0H26.0312C22.148 0 19 3.14797 19 7.03125V72.9688C19 76.852 22.148 80 26.0312 80H72.9062C76.7895 80 79.9375 76.852 79.9375 72.9688V18.75L61.1875 0Z" fill="#557BFF"/>
<path d="M61.0938 0V16.4062C61.0938 17.7006 62.1431 18.75 63.4375 18.75H79.8438L61.0938 0Z" fill="#3B59C1"/>
<path d="M66.5625 47.1875H32.1875C30.8931 47.1875 29.8438 46.1381 29.8438 44.8438C29.8438 43.5494 30.8931 42.5 32.1875 42.5H66.5625C67.8569 42.5 68.9062 43.5494 68.9062 44.8438C68.9062 46.1381 67.8569 47.1875 66.5625 47.1875Z" fill="white"/>
<path d="M66.5625 33.125H32.1875C30.8931 33.125 29.8438 32.0756 29.8438 30.7812C29.8438 29.4869 30.8931 28.4375 32.1875 28.4375H66.5625C67.8569 28.4375 68.9062 29.4869 68.9062 30.7812C68.9062 32.0756 67.8569 33.125 66.5625 33.125Z" fill="white"/>
<path d="M66.5625 61.25H32.1875C30.8931 61.25 29.8438 60.2006 29.8438 58.9062C29.8438 57.6119 30.8931 56.5625 32.1875 56.5625H66.5625C67.8569 56.5625 68.9062 57.6119 68.9062 58.9062C68.9062 60.2006 67.8569 61.25 66.5625 61.25Z" fill="white"/>
<path d="M21.25 80C9.61891 80 0.15625 70.5373 0.15625 58.9062C0.15625 47.2752 9.61891 37.8125 21.25 37.8125C32.8811 37.8125 42.3438 47.2752 42.3438 58.9062C42.3438 70.5373 32.8811 80 21.25 80Z" fill="#87D11F"/>
<path d="M21.25 42.5C12.2036 42.5 4.84375 49.8598 4.84375 58.9062C4.84375 67.9527 12.2036 75.3125 21.25 75.3125C30.2964 75.3125 37.6562 67.9527 37.6562 58.9062C37.6562 49.8598 30.2964 42.5 21.25 42.5Z" fill="#E4F2F9"/>
<path d="M27.5 56.5625H23.5938V49.5312C23.5938 48.2369 22.5444 47.1875 21.25 47.1875C19.9556 47.1875 18.9062 48.2369 18.9062 49.5312V58.9062C18.9062 60.2006 19.9556 61.25 21.25 61.25H27.5C28.7944 61.25 29.8438 60.2006 29.8438 58.9062C29.8438 57.6119 28.7944 56.5625 27.5 56.5625Z" fill="#557BFF"/>
</g>
<defs>
<clipPath id="clip0_120_7535">
<rect width="80" height="80" fill="white"/>
</clipPath>
</defs>
</svg>
