<svg width="80" height="80" viewBox="0 0 80 80" fill="none" xmlns="http://www.w3.org/2000/svg">
<g clip-path="url(#clip0_120_7493)">
<path d="M75.7869 42.4045C75.7869 62.0362 59.8719 77.9512 40.2386 77.9512C20.6054 77.9512 4.68848 62.0378 4.68848 42.4045C4.68848 22.7695 20.6035 6.85449 40.2368 6.85449C59.87 6.85449 75.7869 22.7695 75.7869 42.4045Z" fill="#F2F2F2"/>
<path d="M32.6153 38.4893C33.1603 37.7176 33.4336 36.9726 33.4336 36.2493C33.4336 35.5326 33.1969 34.931 32.7219 34.446C32.2519 33.9643 31.6436 33.7228 30.9019 33.7228C29.5469 33.7228 28.2586 34.6895 27.0452 36.6228L23.1885 34.3378C24.1968 32.7745 25.3035 31.591 26.5052 30.7895C27.7102 29.9862 29.2435 29.5845 31.1052 29.5845C32.9635 29.5845 34.6019 30.1762 36.0102 31.3612C37.4202 32.5429 38.1269 34.1512 38.1269 36.1879C38.1269 37.2979 37.8436 38.3629 37.2769 39.3812C36.7086 40.3995 35.6669 41.7029 34.1419 43.2879L30.2552 47.3312H38.7735V51.6479H23.5585V48.0712L29.8852 41.5895C31.1621 40.2926 32.0703 39.2609 32.6153 38.4893Z" fill="#474E61"/>
<path d="M50.2205 42.3295V38.5678H54.8488V42.3295H57.2873V46.4961H54.8488V51.6495H50.2205V46.4961H41.5488V42.8245L49.2338 30.0811H54.4805L47.1673 42.3295H50.2205Z" fill="#474E61"/>
<path d="M38.7066 21.3896L41.3683 16.6829C31.4833 11.0779 19.3516 13.1629 11.8516 21.0346C12.3833 19.1296 13.1416 17.2496 14.1598 15.4479C20.7766 3.74785 35.5866 -0.382149 47.2681 6.24285L49.9298 1.53613L54.6148 17.3011L38.7066 21.3896Z" fill="#F97070"/>
<path d="M22.805 54.2376L17.4 54.2859C17.4867 65.6459 25.3567 75.1091 35.9233 77.6709C34.0083 78.1591 32 78.4426 29.9333 78.4626C16.4933 78.5826 5.51 67.8243 5.405 54.3943L0 54.4426L11.31 42.5059L22.805 54.2376Z" fill="#FED244"/>
<path d="M59.2014 51.5845L61.9464 56.2428C71.7414 50.4845 76.0014 38.9378 72.9364 28.5078C74.3197 29.9211 75.5664 31.5161 76.6181 33.2961C83.4431 44.8744 79.6148 59.7678 68.0381 66.5744L70.7814 71.2294L54.7881 67.4044L59.2014 51.5845Z" fill="#557BFF"/>
<path d="M60.7721 34.1459V38.3676H58.5889V27.5693H60.7721V31.4111C61.4321 30.7411 62.1704 30.4043 62.9904 30.4043C63.8104 30.4043 64.5004 30.6976 65.0637 31.2793C65.627 31.8593 65.907 32.6361 65.907 33.6061V38.3643H63.7254V34.0843C63.7254 32.8826 63.2821 32.2811 62.4004 32.2811C61.9637 32.2811 61.5837 32.4411 61.2587 32.7561C60.9337 33.0709 60.7721 33.5343 60.7721 34.1459Z" fill="#474E61"/>
</g>
<defs>
<clipPath id="clip0_120_7493">
<rect width="80" height="80" fill="white"/>
</clipPath>
</defs>
</svg>
