<svg width="80" height="80" viewBox="0 0 80 80" fill="none" xmlns="http://www.w3.org/2000/svg">
<path d="M60.6339 26.3042H74.3656C77.4772 26.3042 79.9995 28.8265 79.9995 31.9381V46.1529C79.9995 46.5975 79.6392 46.9578 79.1947 46.9578H55.8048C55.3603 46.9578 55 46.5975 55 46.1529V31.9381C55 28.8265 57.5225 26.3042 60.6339 26.3042Z" fill="#01C0FA"/>
<path d="M19.3656 26.3042H5.63391C2.52234 26.3042 0 28.8265 0 31.9381V46.1529C0 46.5975 0.360312 46.9578 0.804844 46.9578H24.1947C24.6392 46.9578 24.9995 46.5975 24.9995 46.1529V31.9381C24.9995 28.8265 22.477 26.3042 19.3656 26.3042Z" fill="#FED244"/>
<path d="M6.17188 46.9573V31.9565C6.17188 31.3092 5.64734 30.7847 5 30.7847C4.35266 30.7847 3.82812 31.3092 3.82812 31.9565V46.9573H6.17188Z" fill="#F2B202"/>
<path d="M21.1709 31.9565C21.1709 31.3092 20.6464 30.7847 19.999 30.7847C19.3517 30.7847 18.8271 31.3092 18.8271 31.9565V46.9573H21.1709V31.9565Z" fill="#F2B202"/>
<path d="M73.8281 46.9573V31.9565C73.8281 31.3092 74.3527 30.7847 75 30.7847C75.6473 30.7847 76.1719 31.3092 76.1719 31.9565V46.9573H73.8281Z" fill="#08A9F1"/>
<path d="M58.8291 31.9565C58.8291 31.3092 59.3536 30.7847 60.001 30.7847C60.6483 30.7847 61.1729 31.3092 61.1729 31.9565V46.9573H58.8291V31.9565Z" fill="#08A9F1"/>
<path d="M12.4995 21.304C9.7228 21.304 7.3978 19.2 7.1214 16.437L6.62655 11.4889C6.27905 8.01436 9.00749 4.99951 12.4994 4.99951C15.9912 4.99951 18.7197 8.01436 18.3722 11.4889L17.8773 16.4369C17.6012 19.1998 15.2762 21.304 12.4995 21.304Z" fill="#FED244"/>
<path d="M67.5002 21.3039C70.2769 21.3039 72.6019 19.1998 72.8783 16.4369L73.3732 11.4889C73.7207 8.01436 70.9922 4.99951 67.5003 4.99951C64.0085 4.99951 61.28 8.01436 61.6275 11.4889L62.1224 16.4369C62.3985 19.1997 64.7235 21.3039 67.5002 21.3039Z" fill="#01C0FA"/>
<path d="M40.0002 32.4997C35.7425 32.4997 32.1775 29.2734 31.7538 25.0369L30.995 17.45C30.4622 12.1223 34.646 7.49951 40 7.49951C45.3542 7.49951 49.5378 12.1223 49.005 17.45L48.2463 25.0369C47.8228 29.2733 44.2578 32.4997 40.0002 32.4997Z" fill="#557BFF"/>
<path d="M45.0002 61.8195L56.5069 58.5061C58.5752 57.9105 59.9997 56.018 59.9997 53.8656V44.7436C59.9997 40.7431 56.7567 37.5 52.7561 37.5H27.2436C23.2431 37.5 20 40.743 20 44.7436V53.8656C20 56.018 21.4244 57.9105 23.4928 58.5061L34.9995 61.8195H45.0002Z" fill="#557BFF"/>
<path d="M39.9051 22.7339H39.2363C38.589 22.7339 38.0645 22.2094 38.0645 21.562C38.0645 20.9147 38.589 20.3901 39.2363 20.3901H39.593V19.2183C39.593 18.5709 40.1176 18.0464 40.7649 18.0464C41.4123 18.0464 41.9368 18.5709 41.9368 19.2183V20.702C41.9368 21.8223 41.0254 22.7339 39.9051 22.7339Z" fill="#3B59C1"/>
<path d="M40.0008 28.6714C38.3211 28.6714 36.802 27.7474 36.0364 26.2597C35.7402 25.6841 35.9667 24.9775 36.542 24.6813C37.1181 24.3855 37.8241 24.6116 38.1205 25.1869C38.4825 25.8905 39.2031 26.3275 40.0008 26.3275C40.7985 26.3275 41.5191 25.8905 41.8811 25.1869C42.1775 24.6114 42.8838 24.3855 43.4595 24.6813C44.035 24.9775 44.2614 25.6841 43.9652 26.2597C43.1995 27.7474 41.6805 28.6714 40.0008 28.6714Z" fill="#3B59C1"/>
<path d="M32.0606 54.3398C31.9531 54.3398 31.844 54.3249 31.7357 54.2937L24.676 52.2607C24.0542 52.0816 23.6951 51.4323 23.8742 50.8104C24.0532 50.1885 24.7032 49.8293 25.3245 50.0085L32.3842 52.0415C33.006 52.2205 33.3651 52.8699 33.186 53.4918C33.0381 54.0055 32.5695 54.3398 32.0606 54.3398Z" fill="#3B59C1"/>
<path d="M43.9186 55.4976C43.4095 55.4976 42.9409 55.1633 42.7931 54.6497C42.6141 54.0278 42.973 53.3784 43.595 53.1994L54.6761 50.0084C55.2977 49.8295 55.9473 50.1881 56.1264 50.8103C56.3055 51.4322 55.9466 52.0815 55.3245 52.2606L44.2434 55.4515C44.1352 55.4828 44.0261 55.4976 43.9186 55.4976Z" fill="#3B59C1"/>
<path d="M43.752 73.2194L40.36 74.9154C40.1334 75.0286 39.8667 75.0286 39.6402 74.9154L36.2481 73.2194C30.8867 70.5386 27.5 65.0589 27.5 59.0646V45.136C27.5 44.7396 27.7888 44.4022 28.1803 44.3408L39.8756 42.5097C39.9581 42.4968 40.0422 42.4968 40.1247 42.5097L51.82 44.3408C52.2117 44.4021 52.5003 44.7396 52.5003 45.136V59.0646C52.5003 65.0588 49.1136 70.5386 43.752 73.2194Z" fill="#87D11F"/>
<path d="M51.8201 44.3405L47.6714 43.6909V57.4545C47.6714 63.4487 44.2846 68.9286 38.9232 71.6094L35.9795 73.0812C36.0686 73.1279 36.1582 73.1739 36.2484 73.219L39.6404 74.915C39.867 75.0283 40.1337 75.0283 40.3603 74.915L43.7523 73.219C49.1137 70.5383 52.5004 65.0584 52.5004 59.0642V45.1356C52.5004 44.7392 52.2117 44.4019 51.8201 44.3405Z" fill="#74B31D"/>
<path d="M46.187 53.2323C45.2107 52.2559 43.6277 52.2559 42.6513 53.2323L39.1157 56.7678L37.3479 55C36.3716 54.0237 34.7887 54.0237 33.8123 55C32.836 55.9764 32.836 57.5592 33.8123 58.5356L37.3479 62.0712C38.3241 63.0476 39.9071 63.0476 40.8835 62.0712L46.1868 56.7679C47.1634 55.7915 47.1634 54.2086 46.187 53.2323Z" fill="#F2FBFF"/>
</svg>
