<svg width="20" height="14" viewBox="0 0 20 14" fill="none" xmlns="http://www.w3.org/2000/svg">
<path d="M17 5.25C17.875 5.5625 18.5938 6.125 19.1562 6.90625C19.7188 7.6875 20 8.5625 20 9.5C20 10.3125 19.7812 11.0625 19.375 11.75C18.9688 12.4375 18.4375 13 17.75 13.4062C17.0625 13.8125 16.3125 14 15.5 14H5C4.09375 14 3.25 13.7812 2.5 13.3438C1.71875 12.9062 1.09375 12.2812 0.65625 11.5C0.21875 10.75 0 9.90625 0 9C0 8 0.28125 7.0625 0.84375 6.21875C1.40625 5.375 2.1875 4.75 3.125 4.375C3.375 3.125 4 2.0625 5 1.25C6 0.4375 7.1875 0 8.5 0C9.34375 0 10.1562 0.1875 10.9062 0.5625C11.6562 0.9375 12.2812 1.4375 12.8125 2.0625C13.0312 2.03125 13.25 2 13.5 2C14.4062 2 15.1875 2.3125 15.875 2.9375C16.5625 3.5625 16.9375 4.34375 17 5.25ZM15.5 12.5C16.3125 12.5 17.0312 12.2188 17.625 11.625C18.1875 11.0625 18.5 10.3438 18.5 9.5C18.5 8.6875 18.1875 7.96875 17.625 7.375C17.0312 6.8125 16.3125 6.5 15.5 6.5H15.2188C15.4062 6.1875 15.5 5.875 15.5 5.5C15.5 4.96875 15.2812 4.5 14.9062 4.09375C14.5 3.71875 14.0312 3.5 13.5 3.5C13 3.5 12.5625 3.65625 12.1875 3.96875C11.875 3.25 11.4062 2.65625 10.75 2.1875C10.0625 1.75 9.3125 1.5 8.5 1.5C7.75 1.5 7.09375 1.6875 6.46875 2.03125C5.84375 2.40625 5.375 2.875 5.03125 3.5C4.65625 4.125 4.5 4.78125 4.5 5.5V5.53125C3.625 5.65625 2.90625 6.0625 2.34375 6.71875C1.78125 7.375 1.5 8.125 1.5 9C1.5 9.625 1.65625 10.2188 1.96875 10.75C2.28125 11.3125 2.6875 11.7188 3.25 12.0312C3.78125 12.3438 4.375 12.5 5 12.5H15.5ZM9.28125 3.6875L12.5312 6.9375C12.5938 7.03125 12.625 7.125 12.625 7.21875C12.625 7.34375 12.5938 7.40625 12.5312 7.46875L12 8C11.9062 8.09375 11.8125 8.125 11.7188 8.125C11.5938 8.125 11.5312 8.09375 11.4688 8L9.75 6.25V10.625C9.75 10.75 9.6875 10.8438 9.625 10.9062C9.5625 10.9688 9.46875 11 9.375 11H8.625C8.5 11 8.40625 10.9688 8.34375 10.9062C8.28125 10.8438 8.25 10.75 8.25 10.625V6.25L6.5625 8C6.46875 8.09375 6.375 8.125 6.28125 8.125C6.15625 8.125 6.0625 8.09375 6 8L5.46875 7.5C5.40625 7.4375 5.375 7.34375 5.375 7.21875C5.375 7.125 5.40625 7.03125 5.5 6.9375L8.75 3.6875C8.8125 3.625 8.875 3.59375 9 3.59375C9.09375 3.59375 9.1875 3.625 9.28125 3.6875Z" fill="#557BFF"/>
</svg>
