<svg width="120" height="120" viewBox="0 0 120 120" fill="none" xmlns="http://www.w3.org/2000/svg">
<g clip-path="url(#clip0_110_46307)">
<path d="M55.7785 81.5581C54.4217 81.5581 53.2155 80.955 52.4618 80.0507L29.6979 55.3269C28.0396 53.518 28.1906 50.6535 29.9995 48.9952C31.8084 47.3369 34.6729 47.4878 36.3312 49.2968L55.9291 70.553L110.201 16.4324C112.01 14.6234 114.874 14.6234 116.532 16.4324C118.191 18.2413 118.341 21.1058 116.532 22.7641L58.9445 80.2013C58.1905 81.1059 56.9846 81.5581 55.7785 81.5581Z" fill="#557BFF"/>
<path d="M60.0001 120C26.9848 120 0 93.0152 0 60.0001C0 26.9851 26.9848 0 60.0001 0C62.5631 0 64.5226 1.95985 64.5226 4.52248C64.5226 7.08512 62.5628 9.04496 60.0001 9.04496C31.9598 9.04496 9.04525 31.9595 9.04525 59.9999C9.04525 88.0402 31.9598 110.955 60.0001 110.955C88.0405 110.955 110.955 88.0402 110.955 59.9999C110.955 57.4369 112.915 55.4774 115.478 55.4774C118.04 55.4774 120 57.4372 120 59.9999C120 93.0152 93.0152 120 60.0001 120Z" fill="#80C922"/>
</g>
<defs>
<clipPath id="clip0_110_46307">
<rect width="120" height="120" fill="white"/>
</clipPath>
</defs>
</svg>
