<svg width="110" height="110" viewBox="0 0 110 110" fill="none" xmlns="http://www.w3.org/2000/svg">
<path d="M56.7177 0H44.3203C32.1593 0 17.8971 8.56252 16.899 20.8812C16.9026 23.6738 17.2643 26.4548 17.9757 29.1553C18.3434 30.7662 18.6325 32.3944 18.8426 34.0403L9.20266 52.7945C9.07388 53.0461 9.01111 53.3257 9.01926 53.6082C9.01926 53.7921 9.01913 57.3121 14.7976 57.3121H16.8464V65.1918C16.8464 65.8485 17.1092 66.4263 19.6307 71.0228C20.0773 71.8895 20.6813 72.9661 20.8652 73.3339C22.7038 81.844 25.8554 86.1519 30.4256 86.1519H30.5834C30.5834 86.1519 34.0504 85.968 38.4631 86.1519V107.427C38.4596 107.67 38.5044 107.912 38.5952 108.139C38.686 108.365 38.8211 108.57 38.9921 108.744C39.1632 108.917 39.3669 109.055 39.5917 109.149C39.8165 109.243 40.0579 109.292 40.3016 109.292H71.8205C72.3151 109.292 72.7892 109.096 73.1389 108.746C73.4887 108.396 73.6853 107.921 73.6853 107.427V78.7973C80.0009 74.5161 85.2025 68.7883 88.8574 62.0907C92.5122 55.3932 94.5147 47.9197 94.6979 40.2919C94.6979 7.51225 66.3833 0.105166 56.4811 0.105166L56.7177 0Z" fill="#FFDFCF"/>
<path d="M15.2177 98.5247C14.9251 98.5207 14.6378 98.4485 14.3777 98.3144L10.5161 96.4759C10.0892 96.2566 9.76389 95.8815 9.60676 95.4281C9.44963 94.9747 9.47323 94.4781 9.67281 94.0417C9.8724 93.6053 10.2325 93.2626 10.6783 93.085C11.1241 92.9073 11.6209 92.9081 12.066 93.0875L14.0359 94.086L15.2966 90.3821C15.379 90.1094 15.5243 89.8602 15.7211 89.6543C15.9179 89.4483 16.1604 89.2917 16.4291 89.197C16.6977 89.1024 16.9848 89.0728 17.2672 89.1098C17.5496 89.1469 17.8195 89.2498 18.0546 89.4106L21.8631 91.7742L23.0186 88.2813C23.1073 88.0116 23.2584 87.7664 23.4591 87.5657C23.6599 87.365 23.9051 87.2138 24.1748 87.1252C24.4443 87.0336 24.7306 87.0054 25.0129 87.0418C25.2952 87.0782 25.5655 87.1785 25.8029 87.3355L31.6076 91.1965C31.9724 91.4868 32.2155 91.9031 32.2886 92.3636C32.3616 92.824 32.2597 93.295 32.0026 93.6839C31.7455 94.0728 31.3519 94.3517 30.8996 94.4649C30.4474 94.5782 29.9688 94.5175 29.5588 94.2957L25.9344 91.932L24.7526 95.4255C24.6639 95.6952 24.5127 95.9398 24.312 96.1405C24.1113 96.3413 23.8667 96.4924 23.597 96.5811C23.3359 96.6701 23.0573 96.6977 22.7839 96.6612C22.5105 96.6248 22.2494 96.5251 22.0208 96.3708L18.2124 93.7442L17.0569 97.2377C16.9724 97.49 16.8347 97.7214 16.6535 97.9162C16.4723 98.111 16.2514 98.2646 16.0058 98.367C15.769 98.4486 15.5208 98.4931 15.2703 98.4984L15.2177 98.5247Z" fill="#F97070"/>
<path d="M22.3611 109.764C21.884 109.768 21.4235 109.59 21.0741 109.265L18.2641 106.638L16.9771 108.477C16.6915 108.874 16.2594 109.141 15.7767 109.22C15.2939 109.299 14.8002 109.182 14.4031 108.897C14.006 108.611 13.7387 108.18 13.6599 107.697C13.5811 107.214 13.6968 106.72 13.9824 106.323L16.3993 102.725C16.5549 102.511 16.7537 102.332 16.9835 102.201C17.2133 102.071 17.4685 101.99 17.7319 101.965C17.9952 101.94 18.2608 101.972 18.511 102.057C18.7612 102.143 18.9902 102.281 19.183 102.462L21.9673 105.088L24.1476 101.096C24.2608 100.882 24.4153 100.692 24.6023 100.537C24.7892 100.383 25.0045 100.266 25.2365 100.196C25.4684 100.125 25.7121 100.101 25.9534 100.124C26.1947 100.148 26.4291 100.219 26.6427 100.334C26.7927 100.415 26.9334 100.512 27.0628 100.623L29.6893 103.25L31.8696 99.2575C32.1134 98.8256 32.5185 98.5081 32.9963 98.3751C33.4741 98.2421 33.9854 98.3044 34.4173 98.5483C34.8492 98.7921 35.1667 99.1971 35.2997 99.6749C35.4327 100.153 35.3703 100.664 35.1265 101.096L31.7907 107.216C31.65 107.467 31.4541 107.683 31.2174 107.846C30.9807 108.01 30.7095 108.118 30.4249 108.161C30.1478 108.197 29.8667 108.174 29.5996 108.092C29.3324 108.011 29.0856 107.873 28.8756 107.689L26.249 105.062L24.0687 109.055C23.9265 109.299 23.733 109.51 23.5019 109.673C23.2707 109.837 23.0072 109.948 22.7292 110L22.3611 109.764Z" fill="#F97070"/>
<path d="M95.3807 98.5219C95.1271 98.523 94.8761 98.4691 94.6452 98.3641C94.4027 98.2616 94.1854 98.1078 94.0084 97.9127C93.8315 97.7177 93.6996 97.4863 93.6211 97.2349L92.4393 93.7413L88.6046 96.3679C88.372 96.535 88.1025 96.6436 87.8191 96.6847C87.5356 96.7258 87.2463 96.6986 86.9758 96.6045C86.7139 96.5073 86.4766 96.3529 86.2813 96.1531C86.086 95.9533 85.9377 95.7131 85.8466 95.449L84.6647 91.9292L80.9608 94.5557C80.7594 94.7063 80.5287 94.8134 80.2837 94.87C80.0387 94.9265 79.7849 94.9316 79.5379 94.8847C79.2909 94.8378 79.0564 94.7399 78.8492 94.5974C78.642 94.4549 78.4665 94.2708 78.3343 94.0568C78.1924 93.8512 78.0936 93.6186 78.0431 93.3739C77.9927 93.1292 77.9922 92.877 78.0412 92.632C78.0902 92.387 78.1878 92.1543 78.3285 91.9478C78.4691 91.7413 78.6494 91.5656 78.8594 91.4303L84.6647 87.5693C84.8983 87.4042 85.1672 87.2961 85.4503 87.2551C85.7333 87.214 86.022 87.2408 86.2929 87.3326C86.5615 87.431 86.8047 87.5879 87.0047 87.7924C87.2046 87.9969 87.3561 88.2437 87.4484 88.5145L88.552 91.9817L92.2553 89.3552C92.4953 89.2052 92.766 89.1108 93.0472 89.0794C93.3285 89.048 93.613 89.0804 93.8802 89.1737C94.1474 89.267 94.3901 89.4191 94.5907 89.6187C94.7913 89.8183 94.945 90.0599 95.0396 90.3267L96.3003 94.0306L98.2702 93.0584C98.4841 92.9446 98.7184 92.874 98.9596 92.8506C99.2007 92.8273 99.4435 92.8517 99.6752 92.9225C99.9069 92.9932 100.122 93.109 100.309 93.263C100.496 93.417 100.652 93.6064 100.765 93.8202C100.879 94.0341 100.95 94.2684 100.973 94.5096C100.996 94.7507 100.972 94.9941 100.901 95.2259C100.831 95.4576 100.715 95.6731 100.561 95.8601C100.407 96.0471 100.217 96.2015 100.004 96.3153L96.1162 98.1545C95.9097 98.3275 95.6675 98.4528 95.407 98.5219H95.3807Z" fill="#F97070"/>
<path d="M88.2353 109.765H87.9204C87.6411 109.726 87.3753 109.619 87.1464 109.455C86.9176 109.29 86.7326 109.072 86.6071 108.819L84.4006 104.8L81.774 107.427C81.5692 107.62 81.3239 107.766 81.0558 107.852C80.7877 107.939 80.5032 107.964 80.2241 107.927C79.9413 107.878 79.6725 107.768 79.4366 107.605C79.2007 107.441 79.0033 107.228 78.8582 106.981L75.5224 100.861C75.2786 100.429 75.2169 99.918 75.3499 99.4402C75.4829 98.9624 75.7997 98.5567 76.2316 98.3129C76.6635 98.0691 77.1748 98.0068 77.6526 98.1398C78.1304 98.2728 78.5362 98.5902 78.78 99.0221L80.9596 103.015L83.5862 100.388C83.9355 100.042 84.4075 99.8474 84.8995 99.8474C85.3914 99.8474 85.8635 100.042 86.2128 100.388C86.3238 100.517 86.4209 100.658 86.502 100.808L88.6033 104.853L91.2299 102.226C91.4228 102.045 91.6517 101.908 91.902 101.822C92.1522 101.736 92.4178 101.705 92.6811 101.73C92.9444 101.755 93.1996 101.835 93.4294 101.966C93.6592 102.097 93.858 102.276 94.0136 102.489L96.6402 106.009C96.7871 106.209 96.8934 106.435 96.9518 106.676C97.0103 106.916 97.0198 107.166 96.9807 107.41C96.9416 107.655 96.8542 107.889 96.7236 108.1C96.5929 108.31 96.422 108.492 96.2202 108.636C96.0237 108.79 95.7976 108.902 95.5558 108.964C95.314 109.027 95.0618 109.039 94.8152 108.999C94.5685 108.96 94.3328 108.87 94.1226 108.735C93.9124 108.6 93.7322 108.423 93.5936 108.215L92.3329 106.377L89.5223 109.187C89.3577 109.354 89.1616 109.487 88.9451 109.577C88.7286 109.667 88.4961 109.713 88.2616 109.712L88.2353 109.765Z" fill="#F97070"/>
<path d="M56.2701 73.098C53.4334 70.4714 40.1166 64.5875 31.2125 66.7938C30.8034 66.9008 30.4426 67.1436 30.1897 67.4825C29.9367 67.8213 29.8066 68.2359 29.8203 68.6586L30.1621 74.4638C30.1755 74.7054 30.236 74.9416 30.341 75.1596C30.446 75.3776 30.5933 75.5725 30.7739 75.7335C30.9544 75.8946 31.1648 76.0189 31.3933 76.0984C31.6218 76.1779 31.8642 76.2113 32.1058 76.1971C32.271 76.2246 32.4394 76.2246 32.6047 76.1971C37.5951 74.5161 44.6604 78.0356 44.8443 78.0356C46.7569 79.3897 48.3439 81.1537 49.4889 83.1984C50.6339 85.243 51.3082 87.5169 51.4633 89.8552V106.77C51.3686 107.054 51.3479 107.358 51.403 107.652C51.4582 107.946 51.5877 108.221 51.7788 108.452C51.952 108.731 52.1964 108.958 52.4874 109.111C52.7784 109.263 53.1051 109.335 53.4332 109.319H62.7051C63.193 109.305 63.6565 109.103 63.9992 108.756C64.3419 108.408 64.537 107.941 64.5436 107.453V89.9604C64.5436 81.424 56.6116 73.5445 56.2701 73.098Z" fill="#557BFF"/>
</svg>
